<svg xmlns="http://www.w3.org/2000/svg" viewBox="0 0 512 512">
  <rect width="512" height="512" rx="96" fill="#0B2A4A"/>
  <g fill="#C9A24A">
    <path d="M196 78 216 118 196 158 176 118Z"/>
    <path d="M256 58 276 98 256 138 236 98Z"/>
    <path d="M316 78 336 118 316 158 296 118Z"/>
  </g>
  <path d="M256 150v28M188 196l-28-22M324 196l28-22" stroke="#C9A24A" stroke-width="10" fill="none"/>
  <path d="M214 210h84l28 196H186Z" fill="#F7F1E4"/>
  <path d="M226 210h60l6 28h-72Z" fill="#0B2A4A"/>
  <rect x="234" y="268" width="18" height="22" fill="#0B2A4A"/>
  <rect x="260" y="268" width="18" height="22" fill="#0B2A4A"/>
  <path d="M48 430c52-32 92-32 144 0s92 32 144 0 92-32 144 0v34H48Z" fill="#C9A24A"/>
</svg>
